PathFileType	4	(X/Y/Z)	/Users/itak/Documents/Research/Walk-IL/dataset/trc/00331_00011.trc
DataRate	CameraRate	NumFrames	NumMarkers	Units	OrigDataRate	OrigDataStartFrame	OrigNumFrames
100.000000	100.000000	4	55	mm	100.000000	396	792
Frame#	Time	RPSI			LPSI			L3			STRN			T10			C7			CLAV			RBAK			LBAK			LSHO			LUPA			LAEL			LAOL			LWTS			LWPS			LFRA			LIFD			LHPS			RSHO			RUPA			RAEL			RAOL			RWTS			RWPS			RFRA			RIFD			RHTS			RHPS			RBHD			LFHD			RFHD			LBHD			LHIP			RHIP			RASI			LASI			LKNE			LTHI			LANK			LTIP			LTOE			LMT1			LMT5			LHEE			RKNE			RTHI			RANK			RTIP			RTOE			RMT1			RMT5			RHEE			LHTS			*53			*54			
		X1	Y1	Z1	X2	Y2	Z2	X3	Y3	Z3	X4	Y4	Z4	X5	Y5	Z5	X6	Y6	Z6	X7	Y7	Z7	X8	Y8	Z8	X9	Y9	Z9	X10	Y10	Z10	X11	Y11	Z11	X12	Y12	Z12	X13	Y13	Z13	X14	Y14	Z14	X15	Y15	Z15	X16	Y16	Z16	X17	Y17	Z17	X18	Y18	Z18	X19	Y19	Z19	X20	Y20	Z20	X21	Y21	Z21	X22	Y22	Z22	X23	Y23	Z23	X24	Y24	Z24	X25	Y25	Z25	X26	Y26	Z26	X27	Y27	Z27	X28	Y28	Z28	X29	Y29	Z29	X30	Y30	Z30	X31	Y31	Z31	X32	Y32	Z32	X33	Y33	Z33	X34	Y34	Z34	X35	Y35	Z35	X36	Y36	Z36	X37	Y37	Z37	X38	Y38	Z38	X39	Y39	Z39	X40	Y40	Z40	X41	Y41	Z41	X42	Y42	Z42	X43	Y43	Z43	X44	Y44	Z44	X45	Y45	Z45	X46	Y46	Z46	X47	Y47	Z47	X48	Y48	Z48	X49	Y49	Z49	X50	Y50	Z50	X51	Y51	Z51	X52	Y52	Z52	X53	Y53	Z53	X54	Y54	Z54	X55	Y55	Z55	

397	3.96	933.708251953125	970.7520751953125	201.8875122070312	935.4170532226562	969.662353515625	73.30771636962891	931.2019653320312	1022.091613769531	142.0741882324219	1149.070434570312	1209.812377929688	126.3113479614258	909.5000610351562	1142.525146484375	133.9307556152344	947.3541870117188	1390.608154296875	116.3028030395508	1104.049194335938	1334.189208984375	121.7649459838867	901.0726928710938	1253.242919921875	188.0454559326172	939.4053344726562	1352.389770507812	13.9964427947998	1025.41357421875	1370.573486328125	-41.89713668823242	1015.122802734375	1249.126098632812	-108.7348098754883	1044.21435546875	1044.937744140625	-113.3991241455078	976.225830078125	1031.20068359375	-63.61305999755859	1139.058715820312	804.7979736328125	-50.03627395629883	1107.824340820312	792.1112670898438	-110.4954605102539	1063.507690429688	941.077880859375	-114.9560241699219	1145.073120117188	644.1494750976562	-41.90804672241211	1105.189453125	721.5400390625	-103.7419204711914	1009.333251953125	1378.840087890625	279.6365051269531	1003.324768066406	1313.098266601562	345.3591918945312	1021.043823242188	1044.178100585938	374.7557678222656	969.9149780273438	1037.712768554688	295.7828063964844	1129.39990234375	820.1138916015625	311.4083557128906	1100.151733398438	801.5054931640625	380.2615356445312	1048.487915039062	977.2227783203125	379.73974609375	1149.93212890625	646.8001098632812	315.3473510742188	1161.8125	718.600830078125	321.8633728027344	1116.091918945312	717.8004760742188	373.0109558105469	966.8604125976562	1587.682373046875	198.9986419677734	1140.150024414062	1622.951049804688	89.85975646972656	1125.649780273438	1620.299560546875	190.0157623291016	961.076904296875	1583.419799804688	54.873779296875	1022.702331542969	908.4757690429688	-27.02006149291992	1012.390319824219	916.5718383789062	310.5151672363281	1116.888793945312	945.322998046875	269.177734375	1141.599243164062	938.146240234375	28.49670791625977	1045.202514648438	454.0610046386719	-17.27478981018066	1054.357788085938	592.8916015625	-26.53611946105957	950.2105712890625	40.57133102416992	-8.744218826293945	995.6813354492188	239.8702697753906	-25.45458602905273	1154.885986328125	31.25480461120605	53.65403747558594	1084.578735351562	19.36630821228027	93.37730407714844	1075.344604492188	34.73638534545898	-18.85836219787598	915.38671875	34.42434692382812	57.5848274230957	1026.813354492188	453.2236328125	293.4288330078125	1099.852294921875	710.06982421875	300.9716796875	960.2048950195312	42.24411010742188	270.0827026367188	1027.469970703125	334.3912048339844	286.1468505859375	1153.589965820312	33.27515029907227	215.8179321289062	1097.155395507812	29.03848457336426	175.0978240966797	1061.67724609375	28.95483589172363	287.3047790527344	909.1807861328125	43.1155891418457	223.2075500488281	1154.19873046875	726.2826538085938	-62.8416633605957	nan	nan	nan	nan	nan	nan	
398	3.97	933.45458984375	970.7843017578125	201.9514617919922	935.250244140625	969.7012939453125	73.32536315917969	931.0132446289062	1022.115783691406	142.1419219970703	1148.958862304688	1209.861083984375	126.3171920776367	909.3237915039062	1142.548950195312	133.9313049316406	947.2334594726562	1390.629760742188	116.3641815185547	1103.8720703125	1334.167236328125	121.8481826782227	900.9873046875	1253.263427734375	188.0782775878906	939.2763671875	1352.421875	14.03944206237793	1025.291870117188	1370.620849609375	-41.8350715637207	1014.98681640625	1249.1728515625	-108.7166290283203	1044.127685546875	1044.990844726562	-113.3905029296875	976.125	1031.250854492188	-63.58048248291016	1138.957275390625	804.8285522460938	-50.00321960449219	1107.745971679688	792.1199340820312	-110.5116271972656	1063.38916015625	941.1377563476562	-114.9254531860352	1144.983642578125	644.2183837890625	-41.89725875854492	1105.123779296875	721.5902709960938	-103.7508544921875	1009.137573242188	1378.825073242188	279.6546630859375	1003.010070800781	1313.051513671875	345.3213500976562	1020.864074707031	1044.21533203125	374.8105773925781	969.7589111328125	1037.664184570312	295.7846069335938	1129.2626953125	820.1312866210938	311.4627685546875	1100.016845703125	801.552001953125	380.2662048339844	1048.3798828125	977.2447509765625	379.7896118164062	1149.83447265625	646.8780517578125	315.3717956542969	1161.673095703125	718.5936279296875	321.9321594238281	1115.916015625	717.709716796875	372.8692016601562	966.7139892578125	1587.699096679688	199.0704193115234	1140.0419921875	1622.94921875	90.01844024658203	1125.495239257812	1620.276611328125	190.1534423828125	960.98876953125	1583.482666015625	54.95809173583984	1022.5283203125	908.4157104492188	-26.89824485778809	1012.222961425781	916.6131591796875	310.6021728515625	1116.773315429688	945.4378051757812	269.1492919921875	1141.417724609375	938.0955810546875	28.60760116577148	1045.154663085938	454.0379028320312	-17.3670654296875	1054.19921875	592.9249267578125	-26.62520408630371	950.2019653320312	40.56417083740234	-8.781332015991211	995.6817626953125	239.8580474853516	-25.53647232055664	1154.888671875	31.24932479858398	53.64864349365234	1084.585693359375	19.37035942077637	93.36813354492188	1075.350219726562	34.71012115478516	-18.87786865234375	915.3729858398438	34.43866348266602	57.54422760009766	1026.804077148438	453.2300720214844	293.4415283203125	1099.745849609375	710.1173095703125	301.0259094238281	960.2144775390625	42.24380874633789	270.0874633789062	1027.548583984375	334.3378601074219	286.1601867675781	1153.58203125	33.27532577514648	215.8312225341797	1097.156005859375	29.03418731689453	175.0930938720703	1061.679565429688	28.95625877380371	287.3028259277344	909.1884765625	43.12466049194336	223.2148742675781	1154.005615234375	726.320068359375	-62.78339767456055	nan	nan	nan	nan	nan	nan	
399	3.98	933.18310546875	970.8320922851562	202.0235443115234	935.0537109375	969.7520141601562	73.35401153564453	930.8335571289062	1022.150207519531	142.2288360595703	1148.830810546875	1209.912475585938	126.3394088745117	909.1416015625	1142.577758789062	133.9386901855469	947.108642578125	1390.652709960938	116.4258041381836	1103.693725585938	1334.154052734375	121.9235687255859	900.8817138671875	1253.29638671875	188.1102752685547	939.13916015625	1352.455688476562	14.08595561981201	1025.16552734375	1370.675659179688	-41.77289581298828	1014.847473144531	1249.225830078125	-108.6937255859375	1044.04541015625	1045.0498046875	-113.3761978149414	976.0254516601562	1031.302612304688	-63.54513931274414	1138.869995117188	804.8646850585938	-49.96873474121094	1107.680053710938	792.1297607421875	-110.5219573974609	1063.274658203125	941.2002563476562	-114.8906326293945	1144.902465820312	644.2973022460938	-41.87994766235352	1105.070678710938	721.645751953125	-103.751838684082	1008.933288574219	1378.819091796875	279.6761169433594	1002.676452636719	1313.012817382812	345.2757568359375	1020.6787109375	1044.261962890625	374.8721618652344	969.5948486328125	1037.638671875	295.8001098632812	1129.123657226562	820.161376953125	311.5062255859375	1099.902954101562	801.604736328125	380.270751953125	1048.280029296875	977.2570190429688	379.8199462890625	1149.73876953125	646.9745483398438	315.3865356445312	1161.533081054688	718.5997924804688	322.0028991699219	1115.756469726562	717.6566162109375	372.7675476074219	966.536865234375	1587.718383789062	199.1385498046875	1139.936279296875	1622.9619140625	90.18012237548828	1125.34326171875	1620.264526367188	190.2953643798828	960.9013671875	1583.553100585938	55.0347900390625	1022.325378417969	908.3457641601562	-26.74013710021973	1012.041198730469	916.6690063476562	310.7086181640625	1116.648803710938	945.5570678710938	269.1336669921875	1141.207275390625	938.03515625	28.75478744506836	1045.1669921875	454.0031433105469	-17.48550415039062	1054.055541992188	592.9635620117188	-26.73245811462402	950.1952514648438	40.55606460571289	-8.82817554473877	995.7348022460938	239.8412628173828	-25.63480758666992	1154.892333984375	31.24086380004883	53.64261245727539	1084.593139648438	19.37660026550293	93.35765838623047	1075.356811523438	34.67519378662109	-18.90306282043457	915.3612060546875	34.46071243286133	57.4934196472168	1026.802368164062	453.2358093261719	293.4607238769531	1099.625	710.1793823242188	301.099609375	960.2564697265625	42.23154830932617	270.1069641113281	1027.654663085938	334.2842712402344	286.1675109863281	1153.5732421875	33.27048492431641	215.8428497314453	1097.15869140625	29.02700233459473	175.0871887207031	1061.683715820312	28.95883178710938	287.3003234863281	909.2015991210938	43.14095306396484	223.2276153564453	1153.826293945312	726.3734741210938	-62.72279739379883	nan	nan	nan	nan	nan	nan	
400	3.99	932.8992309570312	970.8952026367188	202.1076965332031	934.8179321289062	969.8157958984375	73.39736938476562	930.660400390625	1022.197875976562	142.3365783691406	1148.68505859375	1209.967163085938	126.379753112793	908.9552612304688	1142.614990234375	133.9571228027344	946.9801025390625	1390.679565429688	116.4889984130859	1103.515869140625	1334.152954101562	121.9910430908203	900.74951171875	1253.344848632812	188.1443328857422	938.9938354492188	1352.49365234375	14.13794994354248	1025.03564453125	1370.73876953125	-41.71010208129883	1014.705627441406	1249.285888671875	-108.6639938354492	1043.9658203125	1045.115112304688	-113.3537445068359	975.92822265625	1031.356689453125	-63.50711059570312	1138.792358398438	804.9042358398438	-49.93047714233398	1107.624145507812	792.1444091796875	-110.5251617431641	1063.165283203125	941.2655639648438	-114.8512420654297	1144.828002929688	644.3838500976562	-41.85624313354492	1105.026123046875	721.7081298828125	-103.744499206543	1008.725891113281	1378.827026367188	279.7049865722656	1002.33740234375	1312.98828125	345.2293701171875	1020.493041992188	1044.315673828125	374.9365234375	969.4263305664062	1037.644409179688	295.8323059082031	1128.98095703125	820.2074584960938	311.5359802246094	1099.805908203125	801.6640625	380.2773132324219	1048.18896484375	977.26171875	379.8302917480469	1149.640869140625	647.0883178710938	315.3900451660156	1161.393676757812	718.6243896484375	322.07373046875	1115.617797851562	717.6570434570312	372.7240600585938	966.3330688476562	1587.742797851562	199.2029113769531	1139.832763671875	1622.990478515625	90.34413909912109	1125.19677734375	1620.265747070312	190.4394226074219	960.815185546875	1583.632202148438	55.10300064086914	1022.089416503906	908.2772827148438	-26.55456352233887	1011.846130371094	916.7416381835938	310.8356323242188	1116.507080078125	945.6765747070312	269.1342468261719	1140.9638671875	937.97607421875	28.9294376373291	1045.262329101562	453.9561767578125	-17.6288890838623	1053.938354492188	593.007080078125	-26.85273933410645	950.1913452148438	40.54710388183594	-8.885066032409668	995.854248046875	239.8207092285156	-25.74794769287109	1154.897338867188	31.2283821105957	53.63639831542969	1084.601196289062	19.38535118103027	93.34578704833984	1075.364624023438	34.63088989257812	-18.93401908874512	915.35302734375	34.49128341674805	57.43186569213867	1026.814575195312	453.2403259277344	293.4867858886719	1099.49072265625	710.2581787109375	301.19384765625	960.33056640625	42.20905685424805	270.1399841308594	1027.791870117188	334.2345275878906	286.165771484375	1153.564208984375	33.26059722900391	215.8521270751953	1097.164184570312	29.01632118225098	175.0797729492188	1061.689453125	28.96263313293457	287.2966918945312	909.221435546875	43.16637802124023	223.2467193603516	1153.664306640625	726.440185546875	-62.66014099121094	nan	nan	nan	nan	nan	nan	
